<?xml version="1.0" encoding="utf-8"?>
<svg width="1000.03143px" height="256px" viewBox="0 0 1000.03143 256" version="1.1" xmlns:xlink="http://www.w3.org/1999/xlink" xmlns="http://www.w3.org/2000/svg">
  <defs>
    <linearGradient gradientUnits="userSpaceOnUse" x1="35.360474" y1="48.4032" x2="216.77081" y2="227.1753" id="gradient_1">
      <stop offset="0%" stop-color="#000000" />
      <stop offset="100%" stop-color="#040649" />
    </linearGradient>
    <path d="M0 0L1000.03 0L1000.03 256L0 256L0 0Z" id="path_1" />
    <clipPath id="clip_1">
      <use xlink:href="#path_1" />
    </clipPath>
  </defs>
  <g id="Frame" clip-path="url(#clip_1)">
    <path d="M0 0L1000.03 0L1000.03 256L0 256L0 0Z" id="Frame" fill="none" fill-rule="evenodd" stroke="none" />
    <path d="M809.558 33.965C805.446 43.8068 803.909 74.0416 804.408 135.246C804.796 182.853 805.251 191.409 807.806 199.208L808.797 202.232L823.865 202.232L838.933 202.232L838.817 199.301C838.753 197.69 837.925 192.01 836.977 186.68C833.638 167.898 832.349 148.905 832.296 117.663C832.236 82.9449 833.795 64.1403 838.533 42.4344C840.52 33.3328 840.499 33.9415 838.874 32.3154C837.787 31.2294 835.224 31 824.178 31L810.797 31L809.558 33.965M863.651 32.884C858.152 35.694 856.517 38.4287 856.517 44.8158C856.517 51.0454 858.095 53.781 863.227 56.4437C867.688 58.7588 876.433 58.7881 880.339 56.5014C890.169 50.7449 889.359 36.61 878.942 32.153C874.771 30.3687 867.934 30.6952 863.651 32.884M769.288 54.8511C768.312 55.5352 765.02 59.108 761.974 62.7906C754.697 71.5866 753.231 72.3226 745.413 71.1102C733.641 69.2831 720.595 71.7197 711.71 77.4035C700.951 84.2854 694.495 97.3426 694.495 112.22C694.495 122.955 697.509 131.427 705.14 142.141C707.185 145.012 708.735 147.922 708.584 148.608C708.434 149.294 705.121 152.031 701.221 154.692C689.652 162.585 685.488 170.142 686.318 181.74C686.817 188.717 689.452 194.218 694.364 198.542C699.924 203.435 705.965 205.466 715.01 205.48C722.92 205.492 723.638 205.319 740.548 199.356C750.352 195.898 755.944 195.162 760.18 196.772C761.365 197.223 764.169 199.484 766.409 201.796C768.65 204.108 771.056 206 771.756 206C773.363 206 777.701 201.105 779.881 196.83C782.469 191.758 785.763 181.307 785.763 178.169C785.763 174.434 783.459 172.071 776.758 168.935C766.691 164.224 757.632 164.776 736.437 171.393C722.498 175.744 718.708 176.189 716.362 173.749C713.487 170.759 713.449 168.726 716.209 165.583C720.358 160.858 727.263 158.326 739.526 157.035C755.025 155.404 762.873 152.015 770.518 143.65C778.517 134.897 782.104 123.742 781.296 110.127C780.784 101.507 778.8 95.0793 774.497 88.1078C772.864 85.4635 771.529 82.4592 771.529 81.4318C771.529 78.8763 774.221 76.3962 777.552 75.8812C787.051 74.4126 788.592 73.9998 789.409 72.7019C790.696 70.6572 788.35 66.1951 783.033 60.5717C776.617 53.7894 772.971 52.2713 769.288 54.8511M424.878 67.9928C420.987 69.1048 419.871 70.1221 418.061 74.2024C415.265 80.5099 414.605 95.4159 415.082 141.526C415.523 184.139 416.117 193.911 418.635 199.937L419.785 202.692L433.845 202.461L447.904 202.232L447.857 198.883C447.832 197.041 447.15 192.519 446.342 188.836C443.918 177.786 443.081 164.093 443.526 142.782C443.98 121.069 444.687 116.559 448.963 108.116C452.141 101.839 456.318 98.6396 461.921 98.1899C465.539 97.8994 466.846 98.1899 469.241 99.8177C475.66 104.181 479.293 117.141 479.291 135.665C479.29 146.456 478.501 153.839 474.581 179.747C472.899 190.868 471.755 200.571 472.038 201.308C472.481 202.464 474.458 202.651 486.265 202.651C502.403 202.651 502.198 202.755 503.582 193.833C504.079 190.623 504.818 170.477 505.221 149.062C506.007 107.432 506.285 104.78 510.311 100.469C512.33 98.308 513.213 97.9881 517.11 98.0041C522.122 98.025 527.323 100.066 530.122 103.111C533.038 106.283 536.294 114.24 537.544 121.251C540.122 135.71 538.651 163.9 534.174 185.811C531.473 199.031 531.436 201.628 533.939 202.247C534.976 202.503 541.28 202.605 547.949 202.472L560.075 202.232L561.979 198.779C564.923 193.438 566.383 181.27 566.938 157.435C567.751 122.539 565.34 103.71 558.358 90.4221C552.625 79.5135 544.843 74.4779 532.782 73.8716C524.589 73.4597 522.296 74.0232 512.08 78.9584C502.598 83.5393 499.718 83.546 492.914 79.0027C485.694 74.1814 482.868 73.4019 474.504 73.9236C468.116 74.3221 466.663 74.7659 458.816 78.7139C451.506 82.3922 449.897 82.9189 448.408 82.1226C446.287 80.9863 446.215 79.4616 448.031 74.1304C449.394 70.1297 449.387 70.0509 447.52 68.5387C445.933 67.2534 444.179 67.0173 436.717 67.0801C431.818 67.122 426.49 67.5323 424.878 67.9928M918.282 68.378C912.142 71.4049 909.432 82.6635 908.04 110.926C906.165 148.971 907.314 193.106 910.341 199.291L911.78 202.232L925.177 202.44C932.545 202.554 939.118 202.298 939.783 201.871C940.826 201.202 940.681 198.861 938.729 184.917C933.163 145.139 933.791 124.02 940.956 109.998C944.739 102.595 951.292 97.9823 958.015 97.989C965.919 97.9965 970.382 104.916 971.852 119.446C973.656 137.295 970.476 167.99 964.546 189.942C962.094 199.02 961.939 201.442 963.762 202.142C964.491 202.422 971.07 202.651 978.383 202.651C991.016 202.651 991.765 202.559 993.4 200.803C997.402 196.508 999.207 181.546 999.851 147.341C1000.4 118.368 999.806 109.152 996.677 97.8642C994.434 89.7665 991.462 84.2285 987.071 79.9607C981.793 74.8321 977.529 73.4044 968.845 73.8599C962.727 74.1815 960.866 74.6839 954.51 77.7342C950.493 79.6617 946.476 81.2392 945.585 81.2392C943.25 81.2392 942.765 79.1099 944.002 74.2836C945.035 70.2536 944.997 69.9831 943.202 68.5296C941.609 67.2392 939.757 67.0073 931.155 67.024C923.574 67.0383 920.302 67.3824 918.282 68.378M342.821 71.2056C322.063 74.8145 306.98 93.2858 302.232 120.912C299.895 134.515 300.976 154.818 304.681 166.87C312.115 191.063 332.996 207.416 354.246 205.686C373.133 204.149 389.149 190.894 396.855 170.423C400.904 159.664 401.753 153.98 401.73 137.758C401.711 124.115 401.497 121.893 399.474 114.313C398.244 109.708 395.465 102.367 393.298 97.9991C383.192 77.6312 364.114 67.5047 342.821 71.2056M625.416 71.2215C618.979 72.2121 608.278 77.5123 602.588 82.527C585.011 98.0216 576.124 129.759 581.125 159.172C585.028 182.137 596.475 197.164 614.95 203.577C619.462 205.143 622.181 205.467 630.859 205.477C640.027 205.486 642.08 205.218 647.408 203.311C662.804 197.803 672.191 187.11 674.459 172.493C675.383 166.539 674.968 159.041 673.504 155.187C672.195 151.745 670.38 152.998 667.433 159.375C661.7 171.783 651.956 177.498 636.49 177.521C617.3 177.55 603.884 163.697 614.445 154.758C617.38 152.274 623.989 149.421 636.17 145.377C661.239 137.057 671.569 128.549 674.428 113.865C675.544 108.135 674.718 98.9511 672.566 93.1694C669.188 84.0945 660.785 76.4598 650.281 72.9213C644.219 70.8791 632.737 70.0945 625.416 71.2215M858.551 74.4988C856.108 76.6055 855.299 81.4946 854.32 100.079C853.266 120.088 853.899 187.864 855.207 195.012C856.593 202.586 856.739 202.651 872.556 202.651C885.125 202.651 886.378 202.514 887.916 200.976C889.979 198.913 890.001 199.812 887.56 186.506C881.683 154.494 880.255 118.117 883.416 81.0492C883.856 75.9005 883.73 74.5013 882.803 74.1948C882.161 73.983 876.781 73.6732 870.847 73.5057C861.994 73.2554 859.786 73.4337 858.551 74.4988M731.033 91.6764C719.37 95.8337 715.19 112.239 723.033 123.067C729.493 131.986 744.414 132.796 752.021 124.641C756.902 119.408 758.376 107.491 754.964 100.837C750.488 92.1068 740.524 88.2928 731.033 91.6764M347.426 95.4335C337.931 97.0252 330.516 106.006 327.767 119.247C326.46 125.547 326.448 140.676 327.747 147.061C329.839 157.347 335.737 166.286 342.695 169.716C347.105 171.89 356.376 171.709 360.902 169.361C370.539 164.361 376.282 150.689 376.287 132.734C376.293 107.693 364.583 92.5581 347.426 95.4335M628.501 95.5331C619.202 97.3585 610.477 107.513 608.402 118.925C607.334 124.8 608.238 127.292 611.435 127.292C615.388 127.292 631.644 122.373 638.851 118.996C648.59 114.431 650.846 110.89 648.138 104.409C646.942 101.547 642.637 97.4347 639.698 96.3462C636.443 95.1404 632.109 94.8256 628.501 95.5331" id="Shape" fill="#060606" fill-rule="evenodd" stroke="none" />
    <path d="M0 128C0 57.3075 57.3075 0 128 0C198.692 0 256 57.3075 256 128C256 198.692 198.692 256 128 256C57.3075 256 0 198.692 0 128Z" id="Oval" fill="url(#gradient_1)" fill-rule="evenodd" stroke="none" />
    <path d="M136.635 184.209L119.705 201.139C116.979 203.864 115.617 207.154 115.617 211.008C115.617 214.862 116.979 218.152 119.705 220.877L119.706 220.879C122.431 223.604 125.721 224.967 129.575 224.967C133.429 224.967 136.719 223.604 139.444 220.879L162.804 197.519C164.147 196.176 165.182 194.627 165.908 192.872C166.635 191.117 166.997 189.29 166.997 187.391C166.996 185.491 166.631 183.664 165.903 181.91C165.175 180.156 164.139 178.608 162.795 177.266L149.989 164.483C146.061 160.562 138.745 159.309 133.303 160.396C132.662 160.525 132.049 160.621 131.489 160.673C127.271 161.067 123.025 160.87 118.751 160.083C114.477 159.296 110.315 157.89 106.266 155.865C102.217 153.84 98.5612 151.197 95.2994 147.935L81.1273 133.763C77.753 130.389 75.0536 126.396 73.029 121.785C71.0044 117.173 69.9078 112.421 69.739 107.528C69.5703 102.635 70.4139 97.6864 72.2698 92.6811C74.1256 87.6759 77.2469 82.98 81.6334 78.5934C85.9076 74.3193 90.5472 71.2543 95.5524 69.3984C100.558 67.5426 105.507 66.699 110.399 66.8677C115.292 67.0364 120.044 68.1331 124.656 70.1577C129.267 72.1822 133.26 74.8817 136.635 78.256L150.807 92.4281C154.069 95.6899 156.712 99.3454 158.736 103.395C160.761 107.444 162.167 111.605 162.954 115.879C163.742 120.154 163.938 124.4 163.545 128.617C163.492 129.184 163.394 129.803 163.264 130.452C162.175 135.882 163.432 143.178 167.352 147.09L180.191 159.906C182.986 162.697 186.36 164.092 190.31 164.09C194.261 164.088 197.633 162.69 200.426 159.897L223.777 136.546C226.502 133.821 227.865 130.531 227.865 126.677C227.865 122.823 226.502 119.533 223.777 116.808L223.775 116.807C221.05 114.081 217.76 112.719 213.906 112.719C210.052 112.719 206.762 114.081 204.037 116.807L187.08 133.763L185.393 132.076C189.555 120.266 190.314 108.315 187.671 96.2242C185.028 84.1329 177.97 72.351 166.497 60.8783C159.299 53.6798 151.397 47.9716 142.793 43.7537C134.188 39.5358 125.274 37.1457 116.051 36.5833C106.828 36.0209 97.577 37.5113 88.2977 41.0543C79.0184 44.5973 70.2171 50.5304 61.8938 58.8537C53.5705 67.177 47.6373 75.9783 44.0943 85.2577C40.5513 94.537 39.061 103.788 39.6234 113.011C40.1857 122.234 42.5478 131.176 46.7094 139.837C50.871 148.498 56.5511 156.427 63.7496 163.626C75.2223 175.099 87.0042 182.156 99.0955 184.8C111.187 187.443 123.137 186.684 134.947 182.522L136.635 184.209L136.635 184.209Z" id="Vector" fill="#FFFFFF" stroke="none" />
  </g>
</svg>